<!-- HASIL GENERATE - jangan diedit tangan. Sumber: features/mascot/fiezel-mascot.js + tools/character-system/library.mjs. Regenerasi: node tools/export-character-system.mjs -->
<svg xmlns="http://www.w3.org/2000/svg" viewBox="0 0 480 360" role="img" aria-label="PAW menyapa — ilustrasi utama FIEZEL">
  <rect class="fz-scene-field" x="0" y="0" width="480" height="360" rx="28" fill="#FFF4DA"/>
  <ellipse class="fz-scene-ground" cx="176" cy="312" rx="132" ry="18" fill="#D8B36B" opacity=".35"/>
  <g class="fz-scene-pau" transform="translate(30,46) scale(0.8072)">
    <svg x="0" y="0" width="320" height="332" viewBox="0 -32 320 332" overflow="visible">
      <defs>
        <clipPath id="fzcEyeL-cs-marketing-pahlawan">
          <circle cx="126" cy="98" r="16"/>
        </clipPath>
        <clipPath id="fzcEyeR-cs-marketing-pahlawan">
          <circle cx="194" cy="98" r="16"/>
        </clipPath>
        <mask id="fzcTailTip-cs-marketing-pahlawan" maskUnits="userSpaceOnUse" x="230" y="120" width="110" height="120">
          <path d="M296 200 C 295 180 284 164 268 158" stroke="#fff" stroke-width="25" fill="none" stroke-linecap="round"/>
        </mask>
      </defs>
      <ellipse class="fz-shadow" cx="160" cy="284" rx="86" ry="10" fill="#000" opacity=".08"/>
      <g class="fz-all">
        <g class="fz-tail">
          <g class="fz-tail-base">
            <path d="M212 244 C 266 258 298 238 296 200" stroke="#EDB93A" stroke-width="25" fill="none" stroke-linecap="round"/>
          </g>
          <g class="fz-tail-tip" transform="rotate(10 296 200)">
            <path d="M296 200 C 295 180 284 164 268 158" stroke="#EDB93A" stroke-width="25" fill="none" stroke-linecap="round"/>
            <g mask="url(#fzcTailTip-cs-marketing-pahlawan)">
              <circle class="fz-ring" cx="268" cy="158" r="15" fill="#8C2233"/>
            </g>
          </g>
        </g>
        <g class="fz-body">
          <g class="fz-torso">
            <rect x="102" y="164" width="116" height="96" rx="42" fill="#FFD94F"/>
            <g class="fz-chest" transform="translate(160 226) scale(1.04 1.04) translate(-160 -226)">
              <ellipse cx="160" cy="226" rx="36" ry="28" fill="#FFF4DA"/>
              <g class="fz-emblem" transform="translate(160,225) scale(1.75) translate(-12.6,-12.45)">
                <g id="fz-pawprint-cs-marketing-pahlawan" fill="#8C2233">
                  <rect x="4.6" y="7.5" width="3.1" height="4.6" rx="1.55"/>
                  <rect x="8.9" y="5.1" width="3.1" height="7" rx="1.55"/>
                  <rect x="13.2" y="3.4" width="3.1" height="8.7" rx="1.55"/>
                  <rect x="17.5" y="6.2" width="3.1" height="5.9" rx="1.55"/>
                  <path d="M12.6 14c3.5 0 5.9 1.9 5.9 4.1 0 2-2 3.4-5.9 3.4s-5.9-1.4-5.9-3.4c0-2.2 2.4-4.1 5.9-4.1Z"/>
                </g>
              </g>
            </g>
            <g class="fz-legs">
              <rect class="fz-foot fz-foot-l" x="108" y="246" width="48" height="22" rx="11" fill="#EDB93A"/>
              <rect class="fz-foot fz-foot-r" x="164" y="246" width="48" height="22" rx="11" fill="#EDB93A"/>
            </g>
          </g>
          <g class="fz-head" transform="translate(0 -1)">
            <g class="fz-ear fz-ear-l">
              <path d="M76 66 L95 0 L140 34 Q104 66 76 66 Z" fill="#FFD94F"/>
              <path d="M90 52 L 101 17 L 125 35 Z" fill="#8C2233"/>
            </g>
            <g class="fz-ear fz-ear-r">
              <path d="M244 66 L225 0 L180 34 Q216 66 244 66 Z" fill="#FFD94F"/>
              <path d="M230 52 L 219 17 L 195 35 Z" fill="#8C2233"/>
            </g>
            <circle cx="160" cy="106" r="88" fill="#FFD94F"/>
            <g class="fz-face">
              <ellipse cx="160" cy="140" rx="36" ry="25" fill="#FFF4DA"/>
              <path d="M153 126 L 167 126 L 160 136 Z" fill="#8C2233"/>
              <circle class="fz-blush" cx="102" cy="126" r="11" fill="#F0A0AC"/>
              <circle class="fz-blush" cx="218" cy="126" r="11" fill="#F0A0AC"/>
              <g class="fz-eyes">
                <g class="fz-eye-open">
                  <g class="fz-eye fz-eye-l">
                    <circle cx="126" cy="98" r="16" fill="#33201F"/>
                    <g class="fz-pupil" clip-path="url(#fzcEyeL-cs-marketing-pahlawan)">
                      <circle cx="130.5" cy="92.5" r="5.5" fill="#fff"/>
                      <circle cx="121.5" cy="104" r="2.8" fill="#fff" opacity=".7"/>
                    </g>
                    <g class="fz-lid-up" clip-path="url(#fzcEyeL-cs-marketing-pahlawan)">
                      <circle cx="126" cy="62" r="17" fill="#FFD94F"/>
                    </g>
                    <g class="fz-lid-low" clip-path="url(#fzcEyeL-cs-marketing-pahlawan)">
                      <circle cx="126" cy="134" r="17" fill="#FFD94F"/>
                    </g>
                  </g>
                  <g class="fz-eye fz-eye-r">
                    <circle cx="194" cy="98" r="16" fill="#33201F"/>
                    <g class="fz-pupil" clip-path="url(#fzcEyeR-cs-marketing-pahlawan)">
                      <circle cx="198.5" cy="92.5" r="5.5" fill="#fff"/>
                      <circle cx="189.5" cy="104" r="2.8" fill="#fff" opacity=".7"/>
                    </g>
                    <g class="fz-lid-up" clip-path="url(#fzcEyeR-cs-marketing-pahlawan)">
                      <circle cx="194" cy="62" r="17" fill="#FFD94F"/>
                    </g>
                    <g class="fz-lid-low" clip-path="url(#fzcEyeR-cs-marketing-pahlawan)">
                      <circle cx="194" cy="134" r="17" fill="#FFD94F"/>
                    </g>
                  </g>
                </g>
              </g>
              <g class="fz-brows" opacity="1" stroke="#33201F" stroke-width="5.5" stroke-linecap="round" fill="none">
                <path class="fz-brow-l" d="M115 70 Q 125 63.5 135 66.5" stroke-width="5" transform="translate(0 -3) rotate(0 125 67)"/>
                <path class="fz-brow-r" d="M185 66.5 Q 195 63.5 205 70" stroke-width="5" transform="translate(0 -3) rotate(0 195 67)"/>
              </g>
              <g class="fz-mouth">
                <path class="fz-m fz-m-open" d="M145 146 C 148 162 172 162 175 146 C 165 150 155 150 145 146 Z" fill="#33201F"/>
              </g>
            </g>
          </g>
          <g class="fz-arm fz-arm-l" transform="rotate(60 115 185)">
            <ellipse cx="115" cy="211" rx="14" ry="30" fill="#FFD94F"/>
          </g>
          <g class="fz-arm fz-arm-r" transform="rotate(-60 198 182)">
            <ellipse cx="198" cy="206" rx="14" ry="30" fill="#FFD94F"/>
          </g>
        </g>
      </g>
    </svg>
  </g>
  <g class="fz-scene-prop fz-prop-bintang" transform="translate(328,118) scale(1.36)">
    <path d="M50 6c3 0 6 2 7 6l8 21 22 2c7 1 9 9 4 14l-17 15 5 22c1 7-6 12-12 8l-17-11-17 11c-6 4-13-1-12-8l5-22-17-15c-5-5-3-13 4-14l22-2 8-21c1-4 4-6 7-6Z" fill="#FFD94F"/>
    <path d="M50 22c1 0 2 1 3 4l4 12-10 5-10-5 4-12c1-3 2-4 3-4Z" fill="#fff" opacity=".7"/>
  </g>
  <g class="fz-scene-badge" transform="translate(396,24) scale(0.625)">
    <g class="fz-badge-bg">
      <circle cx="48" cy="48" r="46" fill="#8C2233"/>
    </g>
    <g class="fz-badge-glyph" fill="#FFF4DA" transform="translate(19.2,19.2) scale(2.4)">
      <rect x="4.6" y="7.5" width="3.1" height="4.6" rx="1.55"/>
      <rect x="8.9" y="5.1" width="3.1" height="7" rx="1.55"/>
      <rect x="13.2" y="3.4" width="3.1" height="8.7" rx="1.55"/>
      <rect x="17.5" y="6.2" width="3.1" height="5.9" rx="1.55"/>
      <path d="M12.6 14c3.5 0 5.9 1.9 5.9 4.1 0 2-2 3.4-5.9 3.4s-5.9-1.4-5.9-3.4c0-2.2 2.4-4.1 5.9-4.1Z"/>
    </g>
  </g>
</svg>
